<svg id="visual" viewBox="0 0 960 540" width="960" height="540" xmlns="http://www.w3.org/2000/svg" xmlns:xlink="http://www.w3.org/1999/xlink" version="1.1"><rect x="0" y="0" width="960" height="540" fill="#9CC3D5"></rect><defs><linearGradient id="grad1_0" x1="43.8%" y1="100%" x2="100%" y2="0%"><stop offset="14.444444444444446%" stop-color="#0063b2" stop-opacity="1"></stop><stop offset="85.55555555555554%" stop-color="#0063b2" stop-opacity="1"></stop></linearGradient></defs><defs><linearGradient id="grad1_1" x1="43.8%" y1="100%" x2="100%" y2="0%"><stop offset="14.444444444444446%" stop-color="#0063b2" stop-opacity="1"></stop><stop offset="85.55555555555554%" stop-color="#9cc3d5" stop-opacity="1"></stop></linearGradient></defs><defs><linearGradient id="grad2_0" x1="0%" y1="100%" x2="56.3%" y2="0%"><stop offset="14.444444444444446%" stop-color="#0063b2" stop-opacity="1"></stop><stop offset="85.55555555555554%" stop-color="#0063b2" stop-opacity="1"></stop></linearGradient></defs><defs><linearGradient id="grad2_1" x1="0%" y1="100%" x2="56.3%" y2="0%"><stop offset="14.444444444444446%" stop-color="#9cc3d5" stop-opacity="1"></stop><stop offset="85.55555555555554%" stop-color="#0063b2" stop-opacity="1"></stop></linearGradient></defs><g transform="translate(960, 540)"><path d="M-324 0C-288.8 -31.5 -253.6 -63.1 -237.4 -98.3C-221.3 -133.6 -224.2 -172.6 -209.3 -209.3C-194.4 -246.1 -161.8 -280.6 -124 -299.3C-86.1 -318.1 -43.1 -321 0 -324L0 0Z" fill="#4f95c5"></path><path d="M-162 0C-144.4 -15.8 -126.8 -31.5 -118.7 -49.2C-110.6 -66.8 -112.1 -86.3 -104.7 -104.7C-97.2 -123 -80.9 -140.3 -62 -149.7C-43.1 -159 -21.5 -160.5 0 -162L0 0Z" fill="#0063b2"></path></g><g transform="translate(0, 0)"><path d="M324 0C325.9 49.2 327.9 98.3 299.3 124C270.8 149.7 211.8 151.8 181 181C150.2 210.2 147.6 266.4 122.1 294.7C96.6 323 48.3 323.5 0 324L0 0Z" fill="#4f95c5"></path><path d="M162 0C163 24.6 163.9 49.2 149.7 62C135.4 74.8 105.9 75.9 90.5 90.5C75.1 105.1 73.8 133.2 61 147.4C48.3 161.5 24.1 161.8 0 162L0 0Z" fill="#0063b2"></path></g></svg>